<mxfile host="app.diagrams.net" modified="2023-10-24T13:52:24.270Z" agent="Mozilla/5.0 (Windows NT 10.0; Win64; x64; rv:109.0) Gecko/20100101 Firefox/118.0" version="21.8.2" etag="gRwhac3nGqgTLAAY2JsP" type="github">
  <diagram name="Page-1" id="-_x1WmWQoKw5odeP4Eei">
    <mxGraphModel>
      <root>
        <mxCell id="0" />
        <mxCell id="1" parent="0" />
      </root>
    </mxGraphModel>
  </diagram>
</mxfile>
